<svg xmlns="http://www.w3.org/2000/svg" xmlns:xlink="http://www.w3.org/1999/xlink" version="1.1" x="0px" y="0px" viewBox="0 0 100 100" style="enable-background:new 0 0 100 100;" xml:space="preserve"><style type="text/css">
	.st0{fill-rule:evenodd;clip-rule:evenodd;}
</style><g><g><path class="st0" d="M70.6,16.3L5.3,91.6l1.2,1.1l66.3-74.4L70.6,16.3z M75.3,15.5l-2.3-2l-1.5,1.7l2.3,2L75.3,15.5z M82.6,7.4    l-2.4-2.1l-6.3,7.2l2.3,2.1L82.6,7.4z M91.1,15.7l-7,6.6l2.1,2.3l7.1-6.5L91.1,15.7z M7.8,93.9l1.1,1.2l73.6-67.2l-2.1-2.2    L7.8,93.9z M81.5,24.7l2.1,2.2l1.7-1.5l-2.1-2.3L81.5,24.7z"></path></g></g></svg>