<svg width="44" height="44" viewBox="0 0 44 44" xmlns="http://www.w3.org/2000/svg" xmlns:xlink="http://www.w3.org/1999/xlink"><title>instagram</title><defs><circle id="a" cx="22" cy="22" r="22"/><mask id="b" x="0" y="0" width="44" height="44" fill="#fff"><use xlink:href="#a"/></mask></defs><g fill="none" fill-rule="evenodd"><path d="M0 0h44v44H0z"/><use stroke="#FFF" mask="url(#b)" stroke-width="4" fill="#FFF" xlink:href="#a"/><path d="M22 12.982c2.937 0 3.285.011 4.445.064 1.072.05 1.655.228 2.042.379.514.2.88.438 1.265.823.385.385.624.751.823 1.265.15.387.33.97.379 2.042.053 1.16.064 1.508.064 4.445 0 2.937-.011 3.285-.064 4.445-.05 1.072-.228 1.655-.379 2.043-.2.513-.438.88-.823 1.264a3.408 3.408 0 0 1-1.265.823c-.387.15-.97.33-2.042.379-1.16.053-1.508.064-4.445.064-2.937 0-3.285-.011-4.445-.064-1.072-.049-1.655-.228-2.042-.379a3.41 3.41 0 0 1-1.265-.823 3.408 3.408 0 0 1-.823-1.264c-.15-.388-.33-.97-.379-2.043-.053-1.16-.064-1.508-.064-4.445 0-2.937.011-3.285.064-4.445.049-1.072.228-1.655.379-2.042.2-.514.438-.88.823-1.265a3.408 3.408 0 0 1 1.265-.823c.387-.15.97-.33 2.042-.379 1.16-.053 1.508-.064 4.445-.064M22 11c-2.987 0-3.362.013-4.535.066-1.171.054-1.97.24-2.67.512a5.392 5.392 0 0 0-1.949 1.268 5.392 5.392 0 0 0-1.269 1.949c-.271.7-.457 1.499-.51 2.67C11.012 18.638 11 19.013 11 22s.013 3.362.066 4.535c.054 1.171.24 1.97.511 2.67a5.392 5.392 0 0 0 1.27 1.949 5.392 5.392 0 0 0 1.948 1.269c.7.271 1.499.457 2.67.51 1.173.054 1.548.067 4.535.067s3.362-.013 4.535-.066c1.171-.054 1.97-.24 2.67-.511a5.392 5.392 0 0 0 1.949-1.27 5.392 5.392 0 0 0 1.268-1.948c.272-.7.458-1.499.512-2.67.053-1.173.066-1.548.066-4.535s-.013-3.362-.066-4.535c-.054-1.171-.24-1.97-.512-2.67a5.392 5.392 0 0 0-1.268-1.949 5.392 5.392 0 0 0-1.949-1.268c-.7-.272-1.499-.458-2.67-.512C25.362 11.013 24.987 11 22 11zm.022 5.369a5.653 5.653 0 1 0 0 11.306 5.653 5.653 0 0 0 0-11.306zm0 9.322a3.67 3.67 0 1 1 0-7.339 3.67 3.67 0 0 1 0 7.34zm7.137-9.584a1.31 1.31 0 1 1-2.62 0 1.31 1.31 0 0 1 2.62 0z" fill="#152121"/></g></svg>